<?xml version="1.0" encoding="UTF-8"?>
<!DOCTYPE svg PUBLIC "-//W3C//DTD SVG 1.1//EN" "http://www.w3.org/Graphics/SVG/1.1/DTD/svg11.dtd">
<svg xmlns="http://www.w3.org/2000/svg" version="1.1" width="200px" height="200px" style="shape-rendering:geometricPrecision; text-rendering:geometricPrecision; image-rendering:optimizeQuality; fill-rule:evenodd; clip-rule:evenodd" xmlns:xlink="http://www.w3.org/1999/xlink">
<g><path style="opacity:1" fill="#fdfdfd" d="M -0.5,-0.5 C 66.1667,-0.5 132.833,-0.5 199.5,-0.5C 199.5,66.1667 199.5,132.833 199.5,199.5C 132.833,199.5 66.1667,199.5 -0.5,199.5C -0.5,132.833 -0.5,66.1667 -0.5,-0.5 Z"/></g>
<g><path style="opacity:1" fill="#000000" d="M 47.5,41.5 C 57.5056,41.3335 67.5056,41.5002 77.5,42C 84.681,49.348 92.0143,56.5146 99.5,63.5C 106.986,56.5146 114.319,49.348 121.5,42C 131.5,41.3333 141.5,41.3333 151.5,42C 157.667,48.1667 163.833,54.3333 170,60.5C 170.667,70.5 170.667,80.5 170,90.5C 146.653,114.014 123.153,137.347 99.5,160.5C 75.8471,137.347 52.3471,114.014 29,90.5C 28.3333,80.5 28.3333,70.5 29,60.5C 35.3694,54.2981 41.5361,47.9648 47.5,41.5 Z"/></g>
<g><path style="opacity:1" fill="#fafafa" d="M 54.5,57.5 C 59.8437,57.334 65.1771,57.5006 70.5,58C 80.0141,67.681 89.6808,77.181 99.5,86.5C 109.319,77.181 118.986,67.681 128.5,58C 133.833,57.3333 139.167,57.3333 144.5,58C 147.667,61.1667 150.833,64.3333 154,67.5C 154.667,72.8333 154.667,78.1667 154,83.5C 135.986,101.681 117.819,119.681 99.5,137.5C 81.1805,119.681 63.0138,101.681 45,83.5C 44.3333,78.1667 44.3333,72.8333 45,67.5C 48.3709,64.2975 51.5375,60.9641 54.5,57.5 Z"/></g>
</svg>
