<?xml version="1.0" standalone="no"?>
<!DOCTYPE svg PUBLIC "-//W3C//DTD SVG 20010904//EN"
 "http://www.w3.org/TR/2001/REC-SVG-20010904/DTD/svg10.dtd">
<svg version="1.0" xmlns="http://www.w3.org/2000/svg"
 width="200.000000pt" height="200.000000pt" viewBox="0 0 200.000000 200.000000"
 preserveAspectRatio="xMidYMid meet">

<g transform="translate(0.000000,200.000000) scale(0.100000,-0.100000)"
fill="#000000" stroke="none">
<path d="M432 1568 c-34 -34 -17 -57 240 -315 l252 -253 -257 -258 c-141 -142
-257 -266 -257 -275 0 -22 35 -57 57 -57 9 0 133 116 275 257 l258 257 258
-257 c142 -141 266 -257 275 -257 28 0 59 38 52 63 -4 12 -120 136 -258 274
l-252 253 253 253 c257 258 274 281 240 315 -34 34 -57 17 -315 -240 l-253
-252 -253 252 c-258 257 -281 274 -315 240z"/>
</g>
</svg>
